<svg width="47" height="33" viewBox="0 0 47 33" fill="none" xmlns="http://www.w3.org/2000/svg">
<path d="M42.4226 1.86914H4.0526C2.70675 1.86914 1.61572 3.04353 1.61572 4.49222V27.9484C1.61572 29.3971 2.70675 30.5714 4.0526 30.5714H42.4226C43.7684 30.5714 44.8595 29.3971 44.8595 27.9484V4.49222C44.8595 3.04353 43.7684 1.86914 42.4226 1.86914Z" fill="white"/>
<path d="M42.4228 32.0278H4.05279C1.96284 32.0278 0.261719 30.1967 0.261719 27.947V4.4909C0.261719 2.24126 1.96284 0.410156 4.05279 0.410156H42.4228C44.5127 0.410156 46.2138 2.24126 46.2138 4.4909V27.947C46.2138 30.1967 44.5127 32.0278 42.4228 32.0278ZM4.05279 3.32549C3.45614 3.32549 2.97011 3.84866 2.97011 4.4909V27.947C2.97011 28.5893 3.45614 29.1125 4.05279 29.1125H42.4228C43.0194 29.1125 43.5055 28.5893 43.5055 27.947V4.4909C43.5055 3.84866 43.0194 3.32549 42.4228 3.32549H4.05279Z" fill="#2E3192"/>
<path d="M40.5957 23.8454C40.5957 25.1011 39.7376 26.1203 38.6801 26.1203H34.527C33.4678 26.1203 32.6113 25.1011 32.6113 23.8454V22.0757C32.6113 20.8201 33.4694 19.8008 34.527 19.8008H38.6801C39.7376 19.8008 40.5957 20.8201 40.5957 22.0757V23.8454Z" fill="#2E3192"/>
<path d="M44.8595 8.63477H1.61572V15.3278H44.8595V8.63477Z" fill="#2E3192"/>
</svg>
