<svg width="239" height="109" viewBox="0 0 239 109" fill="none" xmlns="http://www.w3.org/2000/svg">
<path d="M12.3326 1V52.076C12.3326 71.4087 20.9503 79.5961 32.5422 79.5961C45.4153 79.5961 53.6516 71.1495 53.6516 52.076V1H64.9842V51.2984C64.9842 77.797 50.9519 88.6678 32.1608 88.6678C14.3917 88.683 1 78.5593 1 51.8168V1H12.3326Z" fill="white" stroke="white" stroke-width="0.333334" stroke-miterlimit="10"/>
<path d="M114.795 70.8297H114.535C111.195 76.9741 104.24 81.8377 94.2038 81.8377C79.6529 81.8377 67.817 69.2898 67.817 50.4755C67.817 27.316 82.8712 17.0703 96.0036 17.0703C105.658 17.0703 112.095 21.812 115.176 27.8191H115.435L115.817 18.473H126.493C126.234 23.7178 126.112 29.0999 126.112 35.5034V105.775H114.779V70.8297H114.795ZM114.795 43.5689C114.795 42.0289 114.673 40.2451 114.276 38.8272C112.598 31.9205 106.558 26.02 98.0627 26.02C86.3488 26.02 79.2716 35.8693 79.2716 49.8352C79.2716 62.1239 85.1896 72.8728 97.6814 72.8728C105.018 72.8728 111.332 68.3903 113.895 60.584C114.413 59.0441 114.795 56.8791 114.795 55.202V43.5536V43.5689Z" fill="white" stroke="white" stroke-width="0.333334" stroke-miterlimit="10"/>
<path d="M140.839 52.8989C141.099 68.1303 150.875 74.3966 162.208 74.3966C170.322 74.3966 175.203 72.9939 179.459 71.1948L181.396 79.2603C177.399 81.0594 170.582 83.1024 160.668 83.1024C141.495 83.1024 130.025 70.5545 130.025 51.8774C130.025 33.2004 141.099 18.4722 159.249 18.4722C179.581 18.4722 184.995 36.2649 184.995 47.6541C184.995 49.9563 184.736 51.7554 184.614 52.8989H140.855H140.839ZM174.044 44.8335C174.166 37.6676 171.085 26.5376 158.334 26.5376C146.879 26.5376 141.861 37.0272 140.961 44.8335H174.044Z" fill="white" stroke="white" stroke-width="0.333334" stroke-miterlimit="10"/>
<path d="M192.441 18.4722L206.092 55.0792C207.511 59.1805 209.051 64.0442 210.089 67.7491H210.348C211.507 64.0442 212.788 59.3025 214.344 54.82L226.699 18.4722H238.672L221.68 62.6262C213.566 83.88 208.029 94.7508 200.312 101.414C194.775 106.277 189.238 108.198 186.417 108.717L183.58 99.2485C186.417 98.349 190.138 96.5651 193.494 93.7445C196.59 91.3203 200.449 86.9598 203.011 81.1966C203.53 80.0378 203.911 79.1535 203.911 78.5132C203.911 77.8728 203.652 76.9733 203.133 75.5706L180.087 18.4874H192.441V18.4722Z" fill="white" stroke="white" stroke-width="0.333334" stroke-miterlimit="10"/>
</svg>
