<svg width="50" height="50" viewBox="0 0 51 66" fill="none" xmlns="http://www.w3.org/2000/svg">
<path d="M25.9292 47.1276C39.7754 47.1276 51 36.6654 51 23.7596C51 10.8538 39.7754 0.391602 25.9292 0.391602C12.083 0.391602 0.858398 10.8538 0.858398 23.7596C0.858398 36.6654 12.083 47.1276 25.9292 47.1276Z" fill="#2D419A"/>
<path d="M19.5636 12.1484V26.832C19.5636 32.3877 22.2212 34.7456 25.7976 34.7456C29.7694 34.7456 32.3048 32.3173 32.3048 26.832V12.1484H35.7998V26.6097C35.7998 34.2252 31.4732 37.3527 25.6813 37.3527C20.2033 37.3527 16.0745 34.4474 16.0745 26.7561V12.1484H19.5694H19.5636Z" fill="white" stroke="white" stroke-width="0.333334" stroke-miterlimit="10"/>
<path d="M25.927 47.1328V65.589" stroke="#2D419A" stroke-miterlimit="10"/>
</svg>
