<svg width="49" height="62" viewBox="0 0 49 62" fill="none" xmlns="http://www.w3.org/2000/svg">
<g filter="url(#filter0_d_4676_9339)">
<path d="M24.4934 39.7199C32.4095 39.7199 38.8267 33.289 38.8267 25.3561C38.8267 17.4231 32.4095 10.9922 24.4934 10.9922C16.5774 10.9922 10.1602 17.4231 10.1602 25.3561C10.1602 33.289 16.5774 39.7199 24.4934 39.7199Z" fill="white"/>
<path d="M24.4922 39.7227V51.0673" stroke="white" stroke-width="2" stroke-miterlimit="10"/>
</g>
<path d="M20.8542 18.2188V27.2444C20.8542 30.6595 22.3735 32.1088 24.4182 32.1088C26.6889 32.1088 28.1385 30.6162 28.1385 27.2444V18.2188H30.1366V27.1078C30.1366 31.7889 27.663 33.7113 24.3517 33.7113C21.2199 33.7113 18.8594 31.9255 18.8594 27.1978V18.2188H20.8575H20.8542Z" fill="#2D419A" stroke="#2D419A" stroke-miterlimit="10"/>
<defs>
<filter id="filter0_d_4676_9339" x="0.160156" y="0.992188" width="48.668" height="60.0742" filterUnits="userSpaceOnUse" color-interpolation-filters="sRGB">
<feFlood flood-opacity="0" result="BackgroundImageFix"/>
<feColorMatrix in="SourceAlpha" type="matrix" values="0 0 0 0 0 0 0 0 0 0 0 0 0 0 0 0 0 0 127 0" result="hardAlpha"/>
<feOffset/>
<feGaussianBlur stdDeviation="5"/>
<feComposite in2="hardAlpha" operator="out"/>
<feColorMatrix type="matrix" values="0 0 0 0 0 0 0 0 0 0 0 0 0 0 0 0 0 0 0.25 0"/>
<feBlend mode="normal" in2="BackgroundImageFix" result="effect1_dropShadow_4676_9339"/>
<feBlend mode="normal" in="SourceGraphic" in2="effect1_dropShadow_4676_9339" result="shape"/>
</filter>
</defs>
</svg>
