<svg width="75" height="34" viewBox="0 0 75 34" fill="none" xmlns="http://www.w3.org/2000/svg">
<path d="M34 19.5C34 27.2085 27.4203 33.5 19.25 33.5C11.0797 33.5 4.5 27.2085 4.5 19.5C4.5 11.7915 11.0797 5.5 19.25 5.5C27.4203 5.5 34 11.7915 34 19.5Z" fill="white" stroke="#2D419A"/>
<rect x="0.5" y="0.5" width="38" height="17" rx="4.5" fill="white" stroke="#2D419A"/>
<path d="M19.3333 32.7277C27.2493 32.7277 33.6666 26.2968 33.6666 18.3639C33.6666 10.4309 27.2493 4 19.3333 4C11.4172 4 5 10.4309 5 18.3639C5 26.2968 11.4172 32.7277 19.3333 32.7277Z" fill="white"/>
<path d="M15.9458 16V23.5735C15.9458 26.4391 17.4278 27.6553 19.4222 27.6553C21.6371 27.6553 23.051 26.4028 23.051 23.5735V16H25V23.4589C25 27.3869 22.5873 29 19.3573 29C16.3025 29 14 27.5015 14 23.5344V16H15.949H15.9458Z" fill="#2D419A" stroke="#2D419A" stroke-width="0.333334" stroke-miterlimit="10"/>
<path d="M7.18 7.57V8.26H13.49V7.57H7.18ZM7.5 5.51V6.18H13.19V5.51H7.5ZM9.86 5.82V7.31C9.86 8.34 9.68 9.81 7.25 10.79C7.42 10.92 7.65 11.18 7.75 11.34C10.27 10.21 10.61 8.57 10.61 7.32V5.82H9.86ZM10.82 8.01L10.17 8.15C10.61 9.78 11.52 10.86 13.03 11.39C13.13 11.19 13.34 10.9 13.51 10.75C12.08 10.34 11.2 9.41 10.82 8.01ZM6.61 7.55H4.48V8.25H5.88V11.09H6.61V7.55ZM6.61 10.76H5.93C5.42 11.19 4.83 11.63 4.35 11.95L4.75 12.72C5.29 12.28 5.8 11.85 6.28 11.42C6.92 12.21 7.82 12.56 9.12 12.61C10.23 12.65 12.3 12.63 13.4 12.59C13.43 12.36 13.56 12 13.64 11.82C12.46 11.9 10.21 11.93 9.12 11.89C7.97 11.84 7.08 11.5 6.61 10.76ZM4.59 4.3C5.24 4.74 5.99 5.42 6.31 5.9L6.9 5.41C6.56 4.92 5.8 4.27 5.14 3.85L4.59 4.3ZM11.88 3.6C11.67 4.11 11.26 4.83 10.95 5.28L11.56 5.51C11.89 5.09 12.3 4.43 12.64 3.86L11.88 3.6ZM7.89 3.9C8.28 4.4 8.65 5.09 8.78 5.54L9.46 5.24C9.32 4.78 8.93 4.12 8.53 3.64L7.89 3.9ZM16.39 7.55H14.45V8.25H15.68V11.09H16.39V7.55ZM16.39 10.79H15.75C15.29 11.23 14.76 11.68 14.33 12.01L14.72 12.72C15.2 12.27 15.65 11.84 16.08 11.41C16.71 12.2 17.62 12.56 18.95 12.61C20.09 12.65 22.27 12.63 23.41 12.58C23.44 12.37 23.56 12.03 23.65 11.87C22.42 11.95 20.07 11.98 18.94 11.93C17.75 11.88 16.86 11.54 16.39 10.79ZM14.5 4.21C15.08 4.71 15.73 5.43 15.99 5.93L16.62 5.51C16.34 5 15.67 4.31 15.08 3.84L14.5 4.21ZM20.18 4.35V11.53H20.88V5H22.87V4.35H20.18ZM17.49 4.36V9.88H18.19V4.56L17.49 4.36ZM22.48 4.35V9.51C22.48 9.63 22.44 9.67 22.33 9.67C22.2 9.68 21.82 9.68 21.37 9.67C21.47 9.84 21.57 10.13 21.6 10.31C22.21 10.31 22.61 10.31 22.86 10.19C23.11 10.08 23.19 9.88 23.19 9.52V4.35H22.48ZM19.52 3.58C19.1 3.91 18.34 4.3 17.69 4.57C17.78 4.72 17.88 4.96 17.92 5.11C18.64 4.86 19.46 4.51 20.08 4.13L19.52 3.58ZM16.83 9.77L17.03 10.45C17.83 10.21 18.88 9.91 19.87 9.62L19.78 8.96C18.69 9.28 17.58 9.58 16.83 9.77ZM24.63 4.9V5.61H33.39V4.9H24.63ZM27.07 8.47V9.12H31.77V8.47H27.07ZM26.54 6.77V12.8H27.28V7.44H31.65V6.77H26.54ZM31.48 6.77V11.86C31.48 12.01 31.42 12.06 31.25 12.07C31.07 12.07 30.46 12.08 29.79 12.05C29.9 12.26 30.01 12.57 30.04 12.78C30.9 12.78 31.46 12.78 31.78 12.66C32.12 12.54 32.21 12.31 32.21 11.87V6.77H31.48ZM27.9 3.6C27.36 5.61 26.18 7.73 24.39 8.96C24.54 9.11 24.77 9.37 24.87 9.54C26.78 8.2 27.98 5.98 28.66 3.78L27.9 3.6ZM27.07 10.16V10.81H31.77V10.16H27.07Z" fill="#2D419A"/>
</svg>
