<svg width="17" height="12" viewBox="0 0 17 12" fill="none" xmlns="http://www.w3.org/2000/svg">
<path d="M15.6464 0H1.35413C0.607673 0 0 0.59896 0 1.33471V10.2426C0 10.9789 0.607673 11.5773 1.35413 11.5773H15.6459C16.3929 11.5773 17 10.9783 17 10.2426V1.33471C17 0.598397 16.3923 0 15.6459 0H15.6464ZM8.78956 7.06424C8.63136 7.21455 8.36236 7.21567 8.20245 7.06706L1.64312 0.956986H15.2198L8.78899 7.06424H8.78956ZM5.27716 5.6586L0.970906 9.82712V1.64714L5.27659 5.6586H5.27716ZM5.98307 6.31667L7.53538 7.76284C7.80038 8.00997 8.14705 8.13325 8.49429 8.13325C8.84153 8.13325 9.19677 8.00659 9.46291 7.75384L10.9878 6.30597L15.4454 10.6214H1.53632L5.98307 6.31667V6.31667ZM11.6869 5.64171L16.0297 1.5171V9.84513L11.6869 5.64115V5.64171Z" fill="#4D4D4D"/>
</svg>
