<svg width="56" height="67" viewBox="0 0 56 67" fill="none" xmlns="http://www.w3.org/2000/svg">
<path d="M27.7917 41.353C36.2434 41.353 45.521 29.0483 45.521 17.8464C45.521 8.06878 37.5694 0.117188 27.7917 0.117188C18.0141 0.117188 10.0625 8.06878 10.0625 17.8464C10.0625 29.0528 19.3401 41.353 27.7917 41.353Z" fill="#2D419A"/>
<path d="M43.1199 37.2814C42.5082 36.9823 41.7671 37.1832 41.3831 37.7457C38.2132 42.4381 33.3065 45.1303 27.9132 45.1303C22.3948 45.1303 17.4613 42.3176 14.7111 37.6073C14.3584 37.0001 13.5994 36.759 12.9565 37.0492C4.11642 41.0808 0 49.9477 0 64.958C0 65.7169 0.611637 66.3286 1.37063 66.3286H54.2146C54.9736 66.3286 55.5852 65.7169 55.5852 64.958C55.5852 50.2111 51.6251 41.4157 43.1154 37.2769L43.1199 37.2814Z" fill="#2D419A"/>
</svg>
