<svg width="16" height="16" viewBox="0 0 16 16" fill="none" xmlns="http://www.w3.org/2000/svg">
<path fill-rule="evenodd" clip-rule="evenodd" d="M7.9861 0.777832C12.1758 0.777832 15.5718 4.08623 15.5718 8.16672C15.5718 12.2472 12.1753 15.5556 7.9861 15.5556C3.79692 15.5556 0.400391 12.2477 0.400391 8.16672C0.400391 4.08571 3.79692 0.777832 7.9861 0.777832Z" fill="#2D419A"/>
<path fill-rule="evenodd" clip-rule="evenodd" d="M6.49334 6.58009H8.64226C8.8055 6.58009 8.93877 6.70156 8.93877 6.85066V11.3065C8.93877 11.5625 9.16731 11.771 9.44777 11.771H9.47667C9.63991 11.771 9.77318 11.8925 9.77318 12.0416V12.1719C9.77318 12.321 9.63991 12.4425 9.47667 12.4425H6.4928C6.32956 12.4425 6.19629 12.321 6.19629 12.1719V12.0416C6.19629 11.8925 6.32956 11.771 6.4928 11.771H6.5217C6.80216 11.771 7.0307 11.5625 7.0307 11.3065V7.71608C7.0307 7.46011 6.80216 7.25157 6.5217 7.25157H6.4928C6.32956 7.25157 6.19629 7.1301 6.19629 6.981V6.85066C6.19629 6.70156 6.32956 6.58009 6.4928 6.58009H6.49334ZM7.985 3.4917C8.66741 3.4917 9.2203 4.03076 9.2203 4.69494C9.2203 5.35912 8.66688 5.89818 7.985 5.89818C7.30313 5.89818 6.74971 5.35912 6.74971 4.69494C6.74971 4.03076 7.30313 3.4917 7.985 3.4917Z" fill="white"/>
</svg>
