<svg width="28" height="32" viewBox="0 0 28 32" fill="none" xmlns="http://www.w3.org/2000/svg">
<path d="M5.63111 13.9092C7.87111 18.7514 11.48 22.7039 15.8822 25.185L19.3044 21.4207C19.7244 20.9587 20.3467 20.8047 20.8911 21.01C22.6333 21.6431 24.5156 21.9853 26.4444 21.9853C27.3 21.9853 28 22.7553 28 23.6964V29.6679C28 30.609 27.3 31.379 26.4444 31.379C11.8378 31.379 0 18.3579 0 2.29113C0 1.35005 0.7 0.580078 1.55556 0.580078H7C7.85556 0.580078 8.55556 1.35005 8.55556 2.29113C8.55556 4.42994 8.86667 6.4832 9.44222 8.39957C9.61333 8.99844 9.48889 9.66575 9.05333 10.1448L5.63111 13.9092Z" fill="black"/>
</svg>
